<?xml version="1.0" encoding="UTF-8"?>
<svg id="a" data-name="Layer 1" xmlns="http://www.w3.org/2000/svg" viewBox="0 0 1325.54 763.35">
  <defs>
    <style>
      .b {
        fill: #f8be23;
      }

      .b, .c, .d {
        stroke-width: 0px;
      }

      .c {
        fill: #0b0b0b;
      }

      .d {
        fill: #ac1f25;
      }
    </style>
  </defs>
  <path class="b" d="M1324.9,353.74l-23.78-3.47,2.95-20.23,21.46,3.13c-.03-16.11-1.34-31.75-4.38-46.28-6.6-31.49-21.4-62.93-41.99-91.25l-26.68,21.76-12.92-15.84,27.01-22.03c-28.44-33.65-65.33-61.45-106.48-77.17-4.57-1.74-9.48-3.38-14.62-4.95l-11.3,36.17-19.51-6.1,11.05-35.37c-50.47-11.85-117.72-16.73-172.71-14.76l4.83,24.26-20.05,3.99-5.4-27.14c-31.96,2.32-57.72,7.29-70.24,14.88-19.49,11.81-52.23,28.8-88.09,53.57l14.45,12.8-13.56,15.3-17.95-15.9c-33.26,24.81-67.83,56.46-96.17,97.04-2.92,6.98-5.83,13.96-8.72,20.93l20.46,10.74-9.5,18.1-18.71-9.82c-19.16,47.9-35.01,95.81-36,143.71h28.29v20.44h-27.79c.65,8.85,1.79,17.71,3.65,26.56,14.07,67.19,28.15,110.89,42.22,131.11l28.44-16.42,10.22,17.7-24.18,13.96c31.21,29.36,90.65,81.16,158.46,90.91l7.93-25.38,19.51,6.1-6.52,20.86c4.5.03,9.01-.09,13.55-.48,0,0,77.17,8.16,150.18-5.34l-8.93-24.65,19.22-6.96,9.88,27.26c19.85-4.94,38.82-11.72,55.13-21.07,23.91-13.7,49.94-30.79,75.15-49.25l-10.8-9.57,13.56-15.3,13.94,12.35c39.68-30.48,75.54-63.34,95.37-90.27l-14.26-7.24,9.26-18.22,15.89,8.07c1.28-2.56,2.39-5.05,3.22-7.41,11.78-33.74,32.15-100.38,35.96-163.82Z"/>
  <path class="b" d="M777.72,145.14s-88.04-27.75-117.39-13.08c-29.35,14.67-88.04-44.02-117.39-44.02s-86.13,27.75-116.43,28.55c-16.59-13.08-133.02-57.9-162.37-116.59l36.05,93.12s36.05,50.42,0,52.02c-36.05,1.59-65.39,1.59-65.39,1.59,0,0-102.72,14.67-88.04,14.67s-44.02,14.67-51.36,0c-7.34-14.67-36.68-29.35-22.01-102.72,0,0-37.45,132.07-4.05,146.74,33.4,14.67,136.12,44.02,150.79,73.37,29.35,0,86.13-29.35,116.43,0,30.3,29.35-48.17,111.35-82.3,99.7-34.13-11.66-68.58-8.78-132.07-61.57-38.92-32.23-105.27,0-105.27,0,0,0,44.98-3.65,72.73,8.46,27.75,12.11,80.39,63.47,80.39,63.47,0,0,24.56,47.85,59.33,64.28,34.77,16.43,44.02,10.36,44.02,10.36,0,0-111.97,64.77-133.98,35.42l-111.01-95.33s18.18,81.25,53.59,102.97c35.41,21.72,84.53,51.07,118.67,36.39,34.13-14.67,78.15-29.35,78.15-29.35,0,0-27.57,89.89-88.04,88.04-67.34-2.05-117.5,10.28-117.5,10.28,0,0,89.16,17.92,140.62,13.16,43.83-4.06,156.23-36.24,138.3-8.77-18.62,28.52-142.91,92.74-166.84,97.73-23.92,4.99-185.34,19.66-185.34,19.66,0,0,234.78,44.02,264.13,14.67,29.35-29.35,112.02-14.2,112.02-14.2l59.88,19.61c26.94,13.24,58.53,12.67,85.13-1.24,22.61-11.83,47.63-26.52,58.46-38.51,22.01-24.36,72.29-19.34,124.73-24.36,20.66-1.98,88.04,5.18,88.04,5.18"/>
  <path class="d" d="M514.92,214.01s22.34,0,49.78-1.21c27.44-1.21,0-39.6,0-39.6l-27.44-70.89c22.34,44.68,110.97,78.79,123.59,88.75,23.07-.61,66.29-21.73,88.63-21.73l-35.15,482.72c-28.96,1.2-57.92,2.4-86.87,3.61-1.1-.12-1.88-.19-1.84-.16-34.97-5.09-69.3-12.92-104.5-17.26-5.5-.68-11.01-1.23-16.51-1.8,40.74-16,108.16-47.99,99.66-65-11.17-22.34-75.65,9.23-109.16,9.23s-84.96-4.43-84.96-4.43c0,0,26.57-4.8,71.25-15.96,44.68-11.17,67.02-67.02,67.02-67.02,0,0-33.51,11.17-59.49,22.34-25.98,11.17-63.38-11.17-90.33-27.7-26.95-16.53-40.79-78.38-40.79-78.38l84.5,72.57c16.75,22.34,101.98-26.96,101.98-26.96,0,0-7.04,4.62-33.51-7.88-26.47-12.51-45.16-48.93-45.16-48.93,0,0-40.07-39.09-61.19-48.31-21.13-9.22-55.36-6.44-55.36-6.44,0,0,50.51-24.53,80.13,0,48.32,40.19,74.55,38,100.53,46.87,25.98,8.87,85.72-53.55,62.65-75.89-23.07-22.34-66.29,0-88.63,0-11.17-22.34-89.36-44.68-114.78-55.85-25.42-11.17,3.08-111.7,3.08-111.7-11.17,55.85,11.17,67.02,16.75,78.19l64.11-1.96,42-9.21Z"/>
  <ellipse class="d" cx="942.16" cy="393.16" rx="246.96" ry="224.12"/>
  <path class="c" d="M951.88,599.88c.36-49.62.71-99.24,1.07-148.86,9.88-6.28,19.75-12.55,29.63-18.83,9.24,50.34,18.49,100.68,27.73,151.02"/>
  <path class="c" d="M1179.12,441.7c-60.7-11.27-121.4-22.54-182.1-33.81v-17.47c62.65-13.32,125.29-26.63,187.94-39.94"/>
  <path class="c" d="M1092.45,241.17c-32.95,40.76-65.91,81.51-98.86,122.27-8.3-5.43-16.61-10.86-24.91-16.29-2.22-56.77-4.45-113.54-6.67-170.3"/>
  <path class="c" d="M844.22,225.24c25.74,46.11,51.47,92.21,77.21,138.32-2.03,6.04-4.06,12.08-6.09,18.12-46.11-35.28-92.21-70.55-138.32-105.83"/>
  <path class="c" d="M741.65,475.12c50.76-19.96,101.52-39.93,152.28-59.89,4.03,6.72,8.07,13.44,12.1,20.16-47.43,40.11-94.85,80.22-142.28,120.34"/>
  <path class="c" d="M979.74,337.35l-54.25,12.7-36.56,33.32-7.08,47.08,14.15,16.07s44.81,24.67,64.86,14.81c20.05-9.86,60.14-55.77,60.14-55.77v-46.08l-41.27-22.13ZM981.8,398.87s-17.5,20.03-26.24,24.33c-8.75,4.3-28.3-6.46-28.3-6.46l-6.17-7.01,3.09-20.54,15.95-14.54,23.67-5.54,18.01,9.66v20.11Z"/>
  <path class="c" d="M1297.85,354.19l-22.69-3.31,2.82-19.3,20.48,2.99c-.03-15.37-1.28-30.29-4.18-44.16-6.29-30.05-20.42-60.05-40.07-87.08l-25.46,20.76-12.33-15.11,25.77-21.02c-27.14-32.11-62.34-58.64-101.6-73.64-4.36-1.66-9.05-3.23-13.95-4.72l-10.78,34.51-18.62-5.82,10.55-33.75c-48.16-11.31-112.33-15.96-164.8-14.09l4.61,23.15-19.13,3.81-5.16-25.9c-30.5,2.22-55.08,6.95-67.03,14.19-18.6,11.27-49.84,27.48-84.06,51.11l13.79,12.22-12.94,14.6-17.12-15.18c-31.74,23.67-64.73,53.87-91.77,92.6-2.79,6.66-5.57,13.32-8.32,19.98l19.53,10.25-9.06,17.27-17.85-9.37c-18.29,45.71-33.41,91.42-34.35,137.13h27v19.5h-26.52c.62,8.45,1.71,16.9,3.48,25.35,13.43,64.12,26.86,105.81,40.29,125.11l27.14-15.67,9.75,16.89-23.08,13.32c29.78,28.01,86.5,77.45,151.21,86.75l7.57-24.22,18.62,5.82-6.22,19.9c4.29.03,8.6-.08,12.93-.46,0,0,73.64,7.79,143.31-5.09l-8.52-23.52,18.34-6.65,9.43,26.02c18.95-4.71,37.04-11.19,52.61-20.1,22.81-13.07,47.65-29.38,71.71-47l-10.3-9.13,12.94-14.6,13.3,11.79c37.87-29.09,72.08-60.44,91.01-86.14l-13.6-6.91,8.84-17.39,15.16,7.7c1.22-2.44,2.28-4.81,3.07-7.07,11.24-32.2,30.68-95.78,34.31-156.32ZM1132,476.8c-26.33,42.28-62.7,61.22-104.02,82.74-38.38,19.99-70.81,36.49-116.32,35.78-13.08-.2-80.17-2.54-126.12-55.46-31.48-36.26-36.27-76.93-38.75-98.01-2.09-17.74-8.26-78.12,30.39-136.76,39.39-59.76,99.35-77.35,123.08-84.34,21.88-6.44,89.8-26.42,160.31,8.36,16.18,7.98,69.65,34.35,91.93,95.73,25.85,71.2-10,135.08-20.51,151.96Z"/>
</svg>